# File created by Blade
# Date/Time:  Wed Apr 08 17:16:55 2015
#---------------------------------------------------------
:version 1.10
:name HOM
:units
  mass 1.0
  length 1.000000
  angle deg
:documentation
     Acclaim Skeleton File
:root
   axis xyz
   order TX TY TZ RX RY RZ
   position 0.000000 0.000000 0.000000
   orientation 0 0 0
:bonedata
   begin
      id 1
      name Spine_dum
      direction 0.000000 1.000000 0.000000
      length 5.893853
      axis 0.0 0.0 0.0 xyz
   end
   begin
      id 2
      name LeftUpLeg_dum
      direction 1.000000 0.000000 0.000000
      length 3.697939
      axis 0.0 0.0 0.0 xyz
   end
   begin
      id 3
      name RightUpLeg_dum
      direction -1.000000 0.000000 0.000000
      length 3.697939
      axis 0.0 0.0 0.0 xyz
   end
   begin
      id 4
      name Spine
      direction 0.000000 1.000000 0.000000
      length 0.000000
      axis 0.0 0.0 0.0 xyz
      dof rx ry rz
   end
   begin
      id 5
      name Spine_dum1
      direction 0.000000 1.000000 0.000000
      length 16.447146
      axis 0.0 0.0 0.0 xyz
   end
   begin
      id 6
      name Spine_dum2
      direction 0.000000 1.000000 0.000000
      length 10.900383
      axis 0.0 0.0 0.0 xyz
   end
   begin
      id 7
      name Spine_dum3
      direction 0.000000 1.000000 0.000000
      length 10.900383
      axis 0.0 0.0 0.0 xyz
   end
   begin
      id 8
      name Head
      direction 0.000000 1.000000 0.000000
      length 4.527550
      axis 0.0 0.0 0.0 xyz
      dof rx ry rz
   end
   begin
      id 9
      name LeftShoulder
      direction 1.000000 0.000000 0.000000
      length 8.219464
      axis 0.0 0.0 -90.0 xyz
      dof rx ry rz
   end
   begin
      id 10
      name LeftArm
      direction 1.000000 0.000000 0.000000
      length 11.094937
      axis 0.0 0.0 -90.0 xyz
      dof rx ry rz
   end
   begin
      id 11
      name LeftForeArm
      direction 1.000000 0.000000 0.000000
      length 9.103875
      axis 0.0 0.0 -90.0 xyz
      dof ry rz rx
   end
   begin
      id 12
      name LeftHand
      direction 0.000000 0.000000 0.000000
      length 0.000000
      axis 0.0 0.0 -90.0 xyz
      dof rx ry rz
   end
   begin
      id 13
      name LeftHand_dum1
      direction 0.000000 0.000000 0.000000
      length 0.000000
      axis 0.0 0.0 -90.0 xyz
   end
   begin
      id 14
      name LeftHand_dum2
      direction 1.000000 0.000000 0.000000
      length 3.937000
      axis 0.0 0.0 -90.0 xyz
   end
   begin
      id 15
      name LeftHandThumb1
      direction 0.000000 0.000000 1.000000
      length 3.937000
      axis 0.0 0.0 -90.0 xyz
      dof rx rz ry
   end
   begin
      id 16
      name RightShoulder
      direction -1.000000 0.000000 0.000000
      length 8.219464
      axis 0.0 0.0 90.0 xyz
      dof rx ry rz
   end
   begin
      id 17
      name RightArm
      direction -1.000000 0.000000 0.000000
      length 11.094937
      axis 0.0 0.0 90.0 xyz
      dof rx ry rz
   end
   begin
      id 18
      name RightForeArm
      direction -1.000000 0.000000 0.000000
      length 9.103875
      axis 0.0 0.0 90.0 xyz
      dof ry rz rx
   end
   begin
      id 19
      name RightHand
      direction 0.000000 0.000000 0.000000
      length 0.000000
      axis 0.0 0.0 90.0 xyz
      dof rx ry rz
   end
   begin
      id 20
      name RightHand_dum1
      direction 0.000000 0.000000 0.000000
      length 0.000000
      axis 0.0 0.0 90.0 xyz
   end
   begin
      id 21
      name RightHand_dum2
      direction -1.000000 0.000000 0.000000
      length 3.937000
      axis 0.0 0.0 90.0 xyz
   end
   begin
      id 22
      name RightHandThumb1
      direction 0.000000 0.000000 1.000000
      length 3.937000
      axis 0.0 0.0 90.0 xyz
      dof rx rz ry
   end
   begin
      id 23
      name LeftUpLeg
      direction 0.000000 -1.000000 0.000000
      length 16.181467
      axis 0.0 0.0 0.0 xyz
      dof rx ry rz
   end
   begin
      id 24
      name LeftLeg
      direction 0.000000 -1.000000 0.000000
      length 16.501392
      axis 0.0 0.0 0.0 xyz
      dof rx ry rz
   end
   begin
      id 25
      name LeftFoot
      direction 0.000000 -0.258819 0.965926
      length 6.408245
      axis 15.0 0.0 0.0 xyz
      dof rx ry rz
   end
   begin
      id 26
      name LeftToeBase
      direction 0.000000 0.000000 1.000000
      length 2.952750
      axis 0.0 0.0 0.0 xyz
      dof rx ry rz
   end
   begin
      id 27
      name RightUpLeg
      direction 0.000000 -1.000000 0.000000
      length 16.181467
      axis 0.0 0.0 0.0 xyz
      dof rx ry rz
   end
   begin
      id 28
      name RightLeg
      direction 0.000000 -1.000000 0.000000
      length 16.501392
      axis 0.0 0.0 0.0 xyz
      dof rx ry rz
   end
   begin
      id 29
      name RightFoot
      direction 0.000000 -0.258819 0.965926
      length 6.408245
      axis 15.0 0.0 0.0 xyz
      dof rx ry rz
   end
   begin
      id 30
      name RightToeBase
      direction 0.000000 0.000000 1.000000
      length 2.952750
      axis 0.0 0.0 0.0 xyz
      dof rx ry rz
   end
:hierarchy
   begin
      root Spine_dum LeftUpLeg_dum RightUpLeg_dum
      Spine_dum Spine
      LeftUpLeg_dum LeftUpLeg
      RightUpLeg_dum RightUpLeg
      Spine Spine_dum1 Spine_dum2 Spine_dum3
      Spine_dum1 Head
      Spine_dum2 LeftShoulder
      Spine_dum3 RightShoulder
      LeftShoulder LeftArm
      LeftArm LeftForeArm
      LeftForeArm LeftHand
      LeftHand LeftHand_dum1 LeftHand_dum2
      LeftHand_dum1 LeftHandThumb1
      RightShoulder RightArm
      RightArm RightForeArm
      RightForeArm RightHand
      RightHand RightHand_dum1 RightHand_dum2
      RightHand_dum1 RightHandThumb1
      LeftUpLeg LeftLeg
      LeftLeg LeftFoot
      LeftFoot LeftToeBase
      RightUpLeg RightLeg
      RightLeg RightFoot
      RightFoot RightToeBase
   end

# File created by Blade
# Date/Time:  Wed Apr 08 17:17:01 2015
# Frame Rate: 120.000 fps
#------------------------------------------------------
:FULLY-SPECIFIED
:DEGREES
56
root 4.430572 35.863944 -0.683352 -157.587238 -85.102938 151.534991
Spine 11.680204 2.049537 -3.349402
Head -0.559623 10.983507 2.155894
LeftShoulder -6.335078 9.609215 28.940086
LeftArm 12.135804 -36.606140 -36.455664
LeftForeArm 26.011456 0.000000 2.372222
LeftHand -11.816079 -0.000000 -14.199964
LeftHandThumb1 -26.253704 0.000000 33.147579
RightShoulder -23.308314 -39.033140 -12.288276
RightArm 55.896677 48.095893 57.935824
RightForeArm 2.800957 -0.000000 -3.032173
RightHand -2.142912 0.000000 4.757619
RightHandThumb1 -24.326973 -0.000000 -32.862282
LeftUpLeg 13.391933 16.680525 7.917764
LeftLeg 4.794461 -0.000000 -0.000000
LeftFoot -10.379190 3.906857 -18.574311
LeftToeBase 5.325884 -0.000000 -0.000000
RightUpLeg 12.497099 -8.051809 -12.418606
RightLeg 4.074653 -0.000000 -0.000000
RightFoot -12.124537 0.252875 19.634741
RightToeBase 10.344874 -0.000000 -0.000000
57
root 4.431872 35.864034 -0.700369 -157.665508 -85.098356 151.598974
Spine 11.716800 2.053798 -3.319299
Head -0.528720 11.022198 2.127774
LeftShoulder -6.344661 9.572985 28.914299
LeftArm 12.049991 -36.546296 -36.369322
LeftForeArm 26.117327 -0.000000 2.372834
LeftHand -11.726554 -0.000000 -14.365847
LeftHandThumb1 -26.253704 0.000000 33.147579
RightShoulder -23.265828 -39.011052 -12.343892
RightArm 55.863820 48.081709 57.883060
RightForeArm 2.810489 -0.000000 -3.041703
RightHand -2.146937 0.000000 4.785931
RightHandThumb1 -24.326973 -0.000000 -32.862282
LeftUpLeg 13.344817 16.695928 7.967838
LeftLeg 4.921736 -0.000000 -0.000000
LeftFoot -10.385808 3.839566 -18.641216
LeftToeBase 5.291998 -0.000000 -0.000000
RightUpLeg 12.446108 -7.987112 -12.372326
RightLeg 4.192865 -0.000000 -0.000000
RightFoot -12.198991 0.220948 19.632476
RightToeBase 10.315601 -0.000000 -0.000000
58
root 4.433080 35.864977 -0.719475 -157.652824 -85.105217 151.567361
Spine 11.758897 2.070633 -3.289298
Head -0.496538 11.033728 2.101321
LeftShoulder -6.341967 9.576285 28.876719
LeftArm 12.017521 -36.522538 -36.303927
LeftForeArm 26.194936 -0.000000 2.377972
LeftHand -11.720903 0.000000 -14.491301
LeftHandThumb1 -26.253704 0.000000 33.147579
RightShoulder -23.246734 -38.987610 -12.382758
RightArm 55.836633 48.096058 57.866825
RightForeArm 2.831479 0.000000 -3.018613
RightHand -2.115063 -0.000000 4.827092
RightHandThumb1 -24.326973 -0.000000 -32.862282
LeftUpLeg 13.304678 16.704746 8.016769
LeftLeg 5.033777 -0.000000 -0.000000
LeftFoot -10.373437 3.787673 -18.669252
LeftToeBase 5.263992 -0.000000 -0.000000
RightUpLeg 12.413085 -7.958855 -12.334570
RightLeg 4.300555 -0.000000 -0.000000
RightFoot -12.265041 0.206043 19.611428
RightToeBase 10.295350 -0.000000 -0.000000
59
root 4.432774 35.865763 -0.740877 -157.587650 -85.128769 151.478338
Spine 11.800695 2.076009 -3.260773
Head -0.453865 11.065200 2.078679
LeftShoulder -6.356368 9.553568 28.855262
LeftArm 12.007136 -36.440260 -36.261282
LeftForeArm 26.195531 0.000000 2.369491
LeftHand -11.711622 0.000000 -14.517959
LeftHandThumb1 -26.253704 0.000000 33.147579
RightShoulder -23.236865 -39.005977 -12.400240
RightArm 55.883283 48.167922 57.945311
RightForeArm 2.788438 -0.000000 -2.964035
RightHand -2.118222 -0.000000 4.831431
RightHandThumb1 -24.326973 -0.000000 -32.862282
LeftUpLeg 13.277190 16.706575 8.071401
LeftLeg 5.125715 -0.000000 -0.000000
LeftFoot -10.358469 3.739078 -18.721532
LeftToeBase 5.272699 -0.000000 -0.000000
RightUpLeg 12.412594 -7.976969 -12.299234
RightLeg 4.368677 -0.000000 -0.000000
RightFoot -12.313797 0.205350 19.589632
RightToeBase 10.272365 -0.000000 -0.000000
60
root 4.431740 35.867388 -0.765328 -157.577296 -85.169032 151.438341
Spine 11.849408 2.066322 -3.226559
Head -0.412467 11.074986 2.069332
LeftShoulder -6.376987 9.580243 28.835504
LeftArm 12.034728 -36.432774 -36.268823
LeftForeArm 26.170055 -0.000000 2.389314
LeftHand -11.798719 0.000000 -14.418863
LeftHandThumb1 -26.253704 0.000000 33.147579
RightShoulder -23.251488 -39.020331 -12.375693
RightArm 55.904888 48.207713 57.924115
RightForeArm 2.810675 -0.000000 -2.925743
RightHand -2.122285 -0.000000 4.844890
RightHandThumb1 -24.326973 -0.000000 -32.862282
LeftUpLeg 13.257452 16.713259 8.144072
LeftLeg 5.212300 -0.000000 -0.000000
LeftFoot -10.325056 3.697323 -18.709167
LeftToeBase 5.217625 -0.000000 -0.000000
RightUpLeg 12.449144 -7.983159 -12.244399
RightLeg 4.386870 -0.000000 -0.000000
RightFoot -12.335156 0.165767 19.562084
RightToeBase 10.240765 -0.000000 -0.000000
61
root 4.429691 35.868843 -0.791944 -157.508967 -85.223814 151.336839
Spine 11.897559 2.066408 -3.186915
Head -0.354042 11.079269 2.063460
LeftShoulder -6.367116 9.599704 28.815658
LeftArm 12.058124 -36.401944 -36.250875
LeftForeArm 26.139276 -0.000000 2.388704
LeftHand -11.848681 0.000000 -14.409784
LeftHandThumb1 -26.253704 0.000000 33.147579
RightShoulder -23.250698 -38.987860 -12.392599
RightArm 55.807127 48.211256 57.834239
RightForeArm 2.866415 -0.000000 -2.899383
RightHand -2.081634 -0.000000 4.855544
RightHandThumb1 -24.326973 -0.000000 -32.862282
LeftUpLeg 13.243614 16.718261 8.223012
LeftLeg 5.289149 -0.000000 -0.000000
LeftFoot -10.291897 3.655758 -18.691924
LeftToeBase 5.196918 -0.000000 -0.000000
RightUpLeg 12.513022 -8.001573 -12.182333
RightLeg 4.371561 -0.000000 -0.000000
RightFoot -12.355190 0.128373 19.531076
RightToeBase 10.217512 -0.000000 -0.000000
62
root 4.428461 35.870333 -0.822522 -157.419100 -85.295145 151.227632
Spine 11.931630 2.042200 -3.151230
Head -0.302344 11.119874 2.072571
LeftShoulder -6.361327 9.612408 28.833103
LeftArm 12.043947 -36.428683 -36.300130
LeftForeArm 26.083901 -0.000000 2.446401
LeftHand -11.806186 -0.000000 -14.313984
LeftHandThumb1 -26.253704 0.000000 33.147579
RightShoulder -23.247056 -38.987772 -12.386990
RightArm 55.742003 48.225723 57.740932
RightForeArm 2.938034 -0.000000 -2.904306
RightHand -1.974267 -0.000000 4.852879
RightHandThumb1 -24.326973 -0.000000 -32.862282
LeftUpLeg 13.210530 16.715232 8.312958
LeftLeg 5.367993 -0.000000 -0.000000
LeftFoot -10.252779 3.605024 -18.696569
LeftToeBase 5.174015 -0.000000 -0.000000
RightUpLeg 12.579336 -8.038424 -12.104400
RightLeg 4.334454 -0.000000 -0.000000
RightFoot -12.378208 0.063636 19.469674
RightToeBase 10.238759 -0.000000 -0.000000
63
root 4.427188 35.871898 -0.852293 -157.367153 -85.368299 151.161469
Spine 11.954854 2.012547 -3.098989
Head -0.235028 11.142895 2.050871
LeftShoulder -6.364412 9.619048 28.827341
LeftArm 12.067070 -36.442258 -36.307842
LeftForeArm 26.106173 -0.000000 2.421891
LeftHand -11.829754 0.000000 -14.464649
LeftHandThumb1 -26.253704 0.000000 33.147579
RightShoulder -23.255019 -38.975015 -12.405687
RightArm 55.724523 48.235548 57.694906
RightForeArm 2.953718 -0.000000 -2.924481
RightHand -1.982808 0.000000 4.854780
RightHandThumb1 -24.326973 -0.000000 -32.862282
LeftUpLeg 13.174746 16.741578 8.411845
LeftLeg 5.446351 -0.000000 -0.000000
LeftFoot -10.206114 3.525940 -18.672169
LeftToeBase 5.144156 -0.000000 -0.000000
RightUpLeg 12.651033 -8.038314 -12.012532
RightLeg 4.273605 -0.000000 -0.000000
RightFoot -12.402835 -0.049929 19.402069
RightToeBase 10.226584 -0.000000 -0.000000
64
root 4.426855 35.873395 -0.885484 -157.307200 -85.459114 151.093856
Spine 11.968248 1.971168 -3.039125
Head -0.155273 11.168445 2.025468
LeftShoulder -6.361887 9.622076 28.824409
LeftArm 12.091158 -36.478382 -36.341918
LeftForeArm 26.102147 -0.000000 2.405814
LeftHand -11.799349 0.000000 -14.405159
LeftHandThumb1 -26.253704 0.000000 33.147579
RightShoulder -23.246966 -38.969371 -12.456225
RightArm 55.734936 48.259558 57.722070
RightForeArm 2.874418 0.000000 -2.955744
RightHand -1.968308 -0.000000 4.818840
RightHandThumb1 -24.326973 -0.000000 -32.862282
LeftUpLeg 13.123217 16.745730 8.520328
LeftLeg 5.530525 -0.000000 -0.000000
LeftFoot -10.167048 3.443239 -18.669991
LeftToeBase 5.140820 -0.000000 -0.000000
RightUpLeg 12.731212 -8.043543 -11.905293
RightLeg 4.190939 -0.000000 -0.000000
RightFoot -12.420605 -0.163026 19.335926
RightToeBase 10.215235 -0.000000 -0.000000
65
root 4.427058 35.875390 -0.919795 -157.104881 -85.543120 150.885532
Spine 11.983614 1.932679 -3.001391
Head -0.079717 11.181984 2.033068
LeftShoulder -6.360480 9.622559 28.820325
LeftArm 12.099960 -36.458362 -36.317202
LeftForeArm 26.168146 -0.000000 2.365421
LeftHand -11.688236 0.000000 -14.619052
LeftHandThumb1 -26.253704 0.000000 33.147579
RightShoulder -23.239949 -38.975520 -12.475925
RightArm 55.730501 48.294995 57.706757
RightForeArm 2.840970 -0.000000 -2.971642
RightHand -2.033205 0.000000 4.821053
RightHandThumb1 -24.326973 -0.000000 -32.862282
LeftUpLeg 13.064127 16.750478 8.616294
LeftLeg 5.621258 -0.000000 -0.000000
LeftFoot -10.106707 3.352966 -18.695575
LeftToeBase 5.099794 -0.000000 -0.000000
RightUpLeg 12.813240 -8.005777 -11.797727
RightLeg 4.097782 -0.000000 -0.000000
RightFoot -12.457345 -0.314942 19.295024
RightToeBase 10.236779 -0.000000 -0.000000
66
root 4.428013 35.877347 -0.957699 -156.977098 -85.631937 150.758009
Spine 11.989940 1.927425 -2.956463
Head 0.007439 11.161934 2.047185
LeftShoulder -6.325626 9.552384 28.842104
LeftArm 12.060434 -36.376950 -36.296586
LeftForeArm 26.225165 -0.000000 2.377687
LeftHand -11.741051 -0.000000 -14.673795
LeftHandThumb1 -26.253704 0.000000 33.147579
RightShoulder -23.245620 -38.956870 -12.507019
RightArm 55.645711 48.295291 57.645473
RightForeArm 2.793672 -0.000000 -2.989755
RightHand -2.055617 -0.000000 4.829845
RightHandThumb1 -24.326973 -0.000000 -32.862282
LeftUpLeg 12.995709 16.770519 8.725943
LeftLeg 5.714943 -0.000000 -0.000000
LeftFoot -10.057524 3.277768 -18.669155
LeftToeBase 5.103468 -0.000000 -0.000000
RightUpLeg 12.888326 -7.957985 -11.673303
RightLeg 4.007059 -0.000000 -0.000000
RightFoot -12.495968 -0.471956 19.280987
RightToeBase 10.254675 -0.000000 -0.000000
67
root 4.429875 35.878861 -0.993704 -156.646653 -85.717449 150.448186
Spine 11.972048 1.887398 -2.921589
Head 0.093494 11.154471 2.050063
LeftShoulder -6.333620 9.532535 28.830231
LeftArm 12.079092 -36.369946 -36.292836
LeftForeArm 26.242943 -0.000000 2.375226
LeftHand -11.787296 -0.000000 -14.698784
LeftHandThumb1 -26.253704 0.000000 33.147579
RightShoulder -23.210802 -38.935584 -12.563604
RightArm 55.550201 48.306679 57.571197
RightForeArm 2.796271 -0.000000 -2.989781
RightHand -2.108321 -0.000000 4.878283
RightHandThumb1 -24.326973 -0.000000 -32.862282
LeftUpLeg 12.903199 16.800166 8.813884
LeftLeg 5.811184 -0.000000 -0.000000
LeftFoot -9.998233 3.188072 -18.657925
LeftToeBase 5.072784 -0.000000 -0.000000
RightUpLeg 12.934693 -7.924162 -11.568607
RightLeg 3.929162 -0.000000 -0.000000
RightFoot -12.535205 -0.594440 19.268870
RightToeBase 10.253067 -0.000000 -0.000000
